PathFileType	3	(X/Y/Z)	squats_2__view2_aligned.trc
DataRate	CameraRate	NumFrames	NumMarkers	Units	OrigDataRate	OrigDataStartFrame	OrigNumFrames
100.0	100.0	18	19	mm	100.0	1085	1550
Frame#	Time	pelvis			neck			head			hip_left			hip_right			knee_left			knee_right			ankle_left			ankle_right			heel_left			heel_right			toe_left			toe_right			shoulder_left			shoulder_right			elbow_left			elbow_right			wrist_left			wrist_right			
		X1	Y1	Z1	X2	Y2	Z2	X3	Y3	Z3	X4	Y4	Z4	X5	Y5	Z5	X6	Y6	Z6	X7	Y7	Z7	X8	Y8	Z8	X9	Y9	Z9	X10	Y10	Z10	X11	Y11	Z11	X12	Y12	Z12	X13	Y13	Z13	X14	Y14	Z14	X15	Y15	Z15	X16	Y16	Z16	X17	Y17	Z17	X18	Y18	Z18	X19	Y19	Z19	
1085	10.84000	122.492463	967.109550	-42.855885	62.094618	1512.050386	-75.566710	35.101409	1652.429277	-165.957662	51.437656	959.473147	-44.600927	193.547000	974.745910	-41.110884	36.880322	551.305579	-39.566389	223.055526	567.349582	-42.112106	27.280802	182.513763	56.172550	237.285817	195.244515	38.054981	25.755450	140.898846	93.548724	232.275150	151.914291	73.578757	51.322430	113.365874	-113.897237	260.450903	129.536721	-133.837266	-89.516331	1450.193941	-48.130995	225.788938	1483.312863	-41.316765	-173.346265	1198.133461	-86.326658	373.157697	1261.256839	-25.994006	-156.661357	1123.249006	-312.740819	364.588942	1146.973036	-229.745267
1086	10.85000	122.477990	967.215030	-42.835320	62.296955	1512.105783	-75.752955	35.240659	1652.395851	-166.216156	51.428009	959.579831	-44.559960	193.527611	974.850180	-41.110734	36.850438	551.318349	-39.520292	223.005072	567.356296	-42.078929	27.244822	182.488136	56.195360	237.227919	195.217458	38.098891	25.724266	140.870481	93.571145	232.228887	151.876845	73.615078	51.230212	113.308898	-113.869361	260.325833	129.583963	-133.809576	-89.260814	1450.352989	-48.264885	226.003929	1483.115332	-41.593893	-173.597263	1198.347326	-86.106052	373.085117	1260.792441	-26.610517	-157.904127	1123.078013	-313.070483	364.628384	1146.036525	-230.211551
1087	10.86000	122.463518	967.320510	-42.814755	62.499292	1512.161179	-75.939200	35.379908	1652.362425	-166.474650	51.418361	959.686515	-44.518993	193.508223	974.954451	-41.110584	36.820553	551.331118	-39.474195	222.954619	567.363011	-42.045751	27.208842	182.462508	56.218171	237.170022	195.190401	38.142801	25.693082	140.842116	93.593567	232.182623	151.839399	73.651399	51.137995	113.251922	-113.841485	260.200762	129.631205	-133.781886	-89.005297	1450.512036	-48.398776	226.218920	1482.917801	-41.871022	-173.848261	1198.561190	-85.885447	373.012536	1260.328042	-27.227028	-159.146897	1122.907020	-313.400148	364.667827	1145.100014	-230.677836
1088	10.87000	122.482048	967.307966	-42.872267	63.064884	1512.187296	-75.988155	35.954560	1652.400598	-166.589179	51.440329	959.686419	-44.539879	193.523407	974.929465	-41.204709	36.824740	551.274694	-39.444710	223.116383	567.292936	-42.072924	27.264937	182.321257	56.198574	237.469264	195.072307	38.195650	25.790903	140.685797	93.563743	232.490872	151.708520	73.697150	51.015175	113.134419	-113.900008	260.598209	129.584115	-133.736680	-88.561041	1450.741659	-48.425730	226.881566	1482.446557	-42.058331	-173.677558	1198.621979	-85.391295	373.024703	1259.337092	-27.896762	-159.073548	1123.717436	-313.667675	364.846058	1144.264525	-231.945686
1089	10.88000	122.500579	967.295423	-42.929779	63.630476	1512.213413	-76.037110	36.529212	1652.438771	-166.703709	51.462297	959.686322	-44.560765	193.538590	974.904479	-41.298834	36.828927	551.218270	-39.415226	223.278146	567.222861	-42.100096	27.321032	182.180005	56.178977	237.768507	194.954214	38.248499	25.888723	140.529479	93.533919	232.799121	151.577641	73.742901	50.892355	113.016915	-113.958531	260.995656	129.537024	-133.691473	-88.116785	1450.971283	-48.452683	227.544212	1481.975314	-42.245640	-173.506855	1198.682769	-84.897142	373.036869	1258.346141	-28.566496	-159.000200	1124.527852	-313.935203	365.024290	1143.429037	-233.213536
1090	10.89000	122.519109	967.282879	-42.987292	64.196067	1512.239531	-76.086065	37.103863	1652.476944	-166.818239	51.484264	959.686226	-44.581651	193.553774	974.879493	-41.392959	36.833114	551.161846	-39.385742	223.439910	567.152786	-42.127269	27.377126	182.038754	56.159380	238.067749	194.836120	38.301348	25.986544	140.373160	93.504096	233.107370	151.446762	73.788651	50.769535	112.899412	-114.017054	261.393103	129.489934	-133.646267	-87.672530	1451.200906	-48.479636	228.206858	1481.504070	-42.432949	-173.336152	1198.743558	-84.402989	373.049036	1257.355191	-29.236230	-158.926852	1125.338268	-314.202731	365.202521	1142.593548	-234.481386
1091	10.90000	122.537640	967.270335	-43.044804	64.761659	1512.265648	-76.135021	37.678515	1652.515117	-166.932769	51.506232	959.686130	-44.602537	193.568958	974.854508	-41.487084	36.837301	551.105422	-39.356258	223.601674	567.082712	-42.154441	27.433221	181.897503	56.139784	238.366992	194.718027	38.354196	26.084364	140.216841	93.474272	233.415619	151.315882	73.834402	50.646715	112.781908	-114.075577	261.790551	129.442843	-133.601060	-87.228274	1451.430529	-48.506590	228.869504	1481.032827	-42.620258	-173.165449	1198.804347	-83.908836	373.061202	1256.364241	-29.905964	-158.853503	1126.148685	-314.470258	365.380752	1141.758059	-235.749236
1092	10.91000	122.556170	967.257792	-43.102316	65.327250	1512.291765	-76.183976	38.253167	1652.553290	-167.047299	51.528199	959.686033	-44.623423	193.584141	974.829522	-41.581209	36.841488	551.048998	-39.326774	223.763438	567.012637	-42.181614	27.489316	181.756251	56.120187	238.666234	194.599933	38.407045	26.182185	140.060522	93.444449	233.723869	151.185003	73.880153	50.523895	112.664405	-114.134100	262.187998	129.395753	-133.555854	-86.784018	1451.660152	-48.533543	229.532150	1480.561583	-42.807567	-172.994746	1198.865136	-83.414684	373.073368	1255.373290	-30.575698	-158.780155	1126.959101	-314.737786	365.558983	1140.922571	-237.017086
1093	10.92000	122.574701	967.245248	-43.159828	65.892842	1512.317883	-76.232931	38.827818	1652.591462	-167.161829	51.550167	959.685937	-44.644309	193.599325	974.804536	-41.675333	36.845675	550.992574	-39.297290	223.925202	566.942562	-42.208786	27.545410	181.615000	56.100590	238.965476	194.481840	38.459894	26.280005	139.904204	93.414625	234.032118	151.054124	73.925903	50.401075	112.546901	-114.192623	262.585445	129.348662	-133.510647	-86.339763	1451.889776	-48.560496	230.194796	1480.090340	-42.994876	-172.824043	1198.925925	-82.920531	373.085535	1254.382340	-31.245432	-158.706806	1127.769517	-315.005313	365.737215	1140.087082	-238.284936
1094	10.93000	122.593232	967.232704	-43.217341	66.458434	1512.344000	-76.281887	39.402470	1652.629635	-167.276359	51.572135	959.685840	-44.665195	193.614508	974.779550	-41.769458	36.849862	550.936150	-39.267806	224.086966	566.872487	-42.235959	27.601505	181.473749	56.080993	239.264719	194.363746	38.512743	26.377826	139.747885	93.384802	234.340367	150.923245	73.971654	50.278254	112.429398	-114.251145	262.982892	129.301572	-133.465441	-85.895507	1452.119399	-48.587450	230.857442	1479.619096	-43.182185	-172.653339	1198.986715	-82.426378	373.097701	1253.391389	-31.915166	-158.633458	1128.579934	-315.272841	365.915446	1139.251593	-239.552786
1095	10.94000	122.611762	967.220161	-43.274853	67.024025	1512.370117	-76.330842	39.977121	1652.667808	-167.390889	51.594102	959.685744	-44.686081	193.629692	974.754564	-41.863583	36.854049	550.879726	-39.238322	224.248730	566.802412	-42.263131	27.657600	181.332497	56.061397	239.563961	194.245653	38.565592	26.475646	139.591566	93.354978	234.648616	150.792366	74.017405	50.155434	112.311894	-114.309668	263.380339	129.254481	-133.420234	-85.451252	1452.349022	-48.614403	231.520088	1479.147853	-43.369494	-172.482636	1199.047504	-81.932226	373.109868	1252.400439	-32.584900	-158.560110	1129.390350	-315.540368	366.093677	1138.416105	-240.820636
1096	10.95000	122.630293	967.207617	-43.332365	67.589617	1512.396235	-76.379797	40.551773	1652.705981	-167.505419	51.616070	959.685648	-44.706967	193.644876	974.729578	-41.957708	36.858236	550.823302	-39.208838	224.410494	566.732338	-42.290304	27.713695	181.191246	56.041800	239.863204	194.127559	38.618441	26.573467	139.435248	93.325155	234.956865	150.661487	74.063155	50.032614	112.194391	-114.368191	263.777787	129.207391	-133.375028	-85.006996	1452.578645	-48.641357	232.182734	1478.676609	-43.556803	-172.311933	1199.108293	-81.438073	373.122034	1251.409488	-33.254634	-158.486761	1130.200766	-315.807896	366.271908	1137.580616	-242.088486
1097	10.96000	122.648823	967.195073	-43.389878	68.155208	1512.422352	-76.428752	41.126425	1652.744154	-167.619949	51.638038	959.685551	-44.727853	193.660059	974.704592	-42.051833	36.862422	550.766878	-39.179353	224.572257	566.662263	-42.317476	27.769789	181.049995	56.022203	240.162446	194.009466	38.671289	26.671287	139.278929	93.295331	235.265114	150.530608	74.108906	49.909794	112.076887	-114.426714	264.175234	129.160300	-133.329821	-84.562740	1452.808269	-48.668310	232.845380	1478.205366	-43.744112	-172.141230	1199.169082	-80.943920	373.134201	1250.418538	-33.924368	-158.413413	1131.011183	-316.075423	366.450139	1136.745128	-243.356336
1098	10.97000	122.504315	967.079803	-43.494704	68.678495	1512.310649	-76.492735	41.636642	1652.797101	-167.662742	51.497358	959.603848	-44.704637	193.511722	974.555761	-42.284701	36.581708	550.666257	-39.175627	224.551070	566.497211	-42.398031	27.451752	180.859382	55.913167	240.380519	193.790200	38.605575	26.385014	139.063755	93.163490	235.534616	150.293071	74.039595	49.368118	111.898887	-114.570798	264.320217	129.016999	-133.425904	-84.230353	1453.191236	-48.571664	233.578440	1477.426659	-44.393076	-172.138142	1199.524331	-81.399326	372.564590	1248.686371	-35.699177	-156.069228	1133.405828	-315.811234	364.440213	1136.282543	-245.949600
1099	10.98000	122.359806	966.964533	-43.599530	69.201782	1512.198946	-76.556717	42.146859	1652.850049	-167.705535	51.356678	959.522145	-44.681421	193.363385	974.406929	-42.517570	36.300993	550.565637	-39.171900	224.529882	566.332159	-42.478586	27.133716	180.668769	55.804130	240.598593	193.570934	38.539861	26.098741	138.848581	93.031649	235.804117	150.055533	73.970283	48.826442	111.720887	-114.714882	264.465201	128.873698	-133.521986	-83.897966	1453.574204	-48.475018	234.311499	1476.647953	-45.042040	-172.135053	1199.879581	-81.854731	371.994980	1246.954204	-37.473987	-153.725042	1135.800473	-315.547045	362.430286	1135.819958	-248.542863
1100	10.99000	122.215298	966.849263	-43.704356	69.725069	1512.087244	-76.620700	42.657077	1652.902996	-167.748329	51.215998	959.440442	-44.658205	193.215048	974.258098	-42.750438	36.020279	550.465016	-39.168173	224.508695	566.167106	-42.559141	26.815679	180.478155	55.695094	240.816666	193.351669	38.474147	25.812468	138.633407	92.899808	236.073619	149.817996	73.900971	48.284766	111.542888	-114.858966	264.610184	128.730397	-133.618068	-83.565578	1453.957172	-48.378372	235.044559	1475.869246	-45.691004	-172.131964	1200.234830	-82.310137	371.425370	1245.222037	-39.248797	-151.380857	1138.195118	-315.282855	360.420359	1135.357373	-251.136127
1101	11.00000	122.070789	966.733993	-43.809182	70.248355	1511.975541	-76.684682	43.167294	1652.955943	-167.791122	51.075319	959.358739	-44.634989	193.066711	974.109267	-42.983307	35.739564	550.364396	-39.164447	224.487507	566.002054	-42.639696	26.497642	180.287542	55.586057	241.034739	193.132403	38.408432	25.526195	138.418233	92.767966	236.343121	149.580458	73.831660	47.743090	111.364888	-115.003050	264.755167	128.587096	-133.714150	-83.233191	1454.340139	-48.281726	235.777618	1475.090540	-46.339968	-172.128876	1200.590079	-82.765542	370.855760	1243.489869	-41.023606	-149.036672	1140.589763	-315.018666	358.410432	1134.894788	-253.729390
1102	11.01000	121.926281	966.618723	-43.914008	70.771642	1511.863838	-76.748665	43.677511	1653.008891	-167.833915	50.934639	959.277036	-44.611773	192.918373	973.960435	-43.216175	35.458849	550.263776	-39.160720	224.466319	565.837002	-42.720250	26.179605	180.096929	55.477020	241.252813	192.913137	38.342718	25.239921	138.203059	92.636125	236.612623	149.342921	73.762348	47.201414	111.186888	-115.147134	264.900151	128.443795	-133.810233	-82.900803	1454.723107	-48.185080	236.510678	1474.311833	-46.988932	-172.125787	1200.945328	-83.220948	370.286150	1241.757702	-42.798416	-146.692487	1142.984408	-314.754477	356.400505	1134.432203	-256.322653
